G04 EAGLE Gerber RS-274X export*
G75*
%MOMM*%
%FSLAX34Y34*%
%LPD*%
%INSoldermask Top*%
%IPPOS*%
%AMOC8*
5,1,8,0,0,1.08239X$1,22.5*%
G01*
G04 Define Apertures*
%ADD10C,2.403200*%
%ADD11C,3.454400*%
%ADD12C,2.903200*%
%ADD13P,1.84353X8X112.5*%
%ADD14C,2.133600*%
%ADD15C,1.657100*%
%ADD16R,2.153200X2.153200*%
%ADD17C,2.153200*%
%ADD18P,1.76776X8X22.5*%
%ADD19P,1.76776X8X292.5*%
%ADD20P,1.76776X8X112.5*%
%ADD21C,1.727200*%
%ADD22C,1.524000*%
%ADD23C,2.003200*%
%ADD24C,1.853200*%
%ADD25P,1.76776X8X202.5*%
D10*
X35505Y559120D03*
X388205Y39120D03*
D11*
X375505Y559120D03*
X35505Y39120D03*
D12*
X281000Y139000D03*
X188000Y139000D03*
D13*
X149510Y373250D03*
X149510Y424050D03*
D14*
X32188Y522412D03*
X32188Y420812D03*
D15*
X272937Y481413D03*
X272937Y509313D03*
X171337Y509313D03*
X171337Y481413D03*
D16*
X149300Y251500D03*
D17*
X89300Y271500D03*
X29300Y251500D03*
X29300Y129500D03*
X149300Y129500D03*
D18*
X296400Y517660D03*
X398000Y517660D03*
D19*
X100020Y580300D03*
X100020Y478700D03*
X74514Y580131D03*
X74514Y478531D03*
D20*
X455330Y471000D03*
X455330Y572600D03*
D19*
X428000Y573330D03*
X428000Y471730D03*
D21*
X107660Y437044D02*
X107660Y421804D01*
X62448Y421804D02*
X62448Y437044D01*
X107660Y372020D02*
X107660Y356780D01*
X62448Y356780D02*
X62448Y372020D01*
D22*
X126605Y513100D02*
X139813Y513100D01*
X139813Y462300D02*
X126605Y462300D01*
X126605Y487700D02*
X139813Y487700D01*
D23*
X183000Y561510D03*
X148000Y561510D03*
X254120Y561510D03*
X219120Y561510D03*
D24*
X207500Y421900D03*
X232900Y421900D03*
X258300Y421900D03*
D17*
X165500Y38100D03*
X115500Y38100D03*
X215500Y38100D03*
X317500Y38100D03*
X267500Y38100D03*
D25*
X397800Y467000D03*
X296200Y467000D03*
D18*
X296200Y492000D03*
X397800Y492000D03*
M02*
